<?xml version='1.0' encoding='utf-8'?>
<!-- Generator: Adobe Illustrator 21.0.0, SVG Export Plug-In . SVG Version: 6.00 Build 0)  -->
<svg viewBox="0 0 256 256" version="1.1" x="0px" height="256" xmlns:xlink="http://www.w3.org/1999/xlink" style="enable-background:new 0 0 256 256;" xml:space="preserve" y="0px" width="256" id="图层_1" xmlns="http://www.w3.org/2000/svg">
    <style type="text/css">&#xd;
	.st0{fill:#FFFFFF;}&#xd;
	.st1{fill:none;stroke:#000000;stroke-width:4.996;stroke-linecap:round;stroke-linejoin:round;stroke-miterlimit:10;}&#xd;
	.st2{fill:#FA6F4F;}&#xd;
	.st3{fill:none;stroke:#000000;stroke-width:5;stroke-linecap:round;stroke-linejoin:round;stroke-miterlimit:10;}&#xd;
	.st4{fill:none;stroke:#000000;stroke-width:4.9995;stroke-linecap:round;stroke-linejoin:round;stroke-miterlimit:10;}&#xd;
	.st5{fill:none;stroke:#000000;stroke-width:5.0159;stroke-linecap:round;stroke-linejoin:round;stroke-miterlimit:10;}&#xd;
</style>
    <g transform="matrix(1,0,0,1,7.3656886e-07,3.2327581e-07)">
        <g transform="matrix(1.4929374,0,0,1.4929374,-63.133934,-63.099287)">
            <g>
                <g>
                    <path d="M211.5,170.8c2.2,4.4,1.4,9.7-2.1,13.2L196,197.1c-2.1,2.1-5,3.3-8.1,3.3h-0.8c-3.3-0.3-6.4-2-8.3-4.8&#xd;&#xa;&#x9;&#x9;&#x9;l-30.7-41l-20.8,17.1l5,17c1.2,4,0.1,8.3-2.8,11.3l-10.2,10.2c-2.1,2.1-5,3.3-8,3.3h-1.5c-3.5-0.4-6.6-2.5-8.4-5.7l-8.3-14.5&#xd;&#xa;&#x9;&#x9;&#x9;c-0.6,0-1.1,0.1-1.7,0.1c-10.6,0-20.2-6.1-24.7-15.7c-2.1-4.5-3-9.4-2.5-14.2l-16-9.2c-3.1-1.8-5.2-4.9-5.6-8.4&#xd;&#xa;&#x9;&#x9;&#x9;c-0.5-3.5,0.7-7.1,3.2-9.6l10.2-10.2c2.9-3,7.3-4.1,11.3-2.9l19.1,5.7l16.4-20.2L60,76.5c-2.7-1.9-4.5-5-4.7-8.3&#xd;&#xa;&#x9;&#x9;&#x9;c-0.3-3.3,0.9-6.6,3.3-9L72,45.7c3.5-3.6,8.9-4.4,13.3-2.1l52.8,21.3l6.8-8.3c9.6-11.2,24.6-16.1,38.9-12.7&#xd;&#xa;&#x9;&#x9;&#x9;c14.3,3.5,25.5,14.7,28.9,29.1c3.4,14.4-1.5,29.5-12.7,39.1l-8.8,7.3L211.5,170.8z" class="st0"/>
                </g>
                <path d="M206.8,180.8l-12.1,12.6c-3.7,3.8-9.9,3.6-13.2-0.5l-28-34.2c-3.1-3.8-2.5-9.5,1.4-12.6l30.2-23.4&#xd;&#xa;&#x9;&#x9;c1.3-1,3.3-0.5,3.9,1l19.5,47.6C209.9,174.6,209.2,178.3,206.8,180.8z" class="st2"/>
                <path d="M91.2,193.5c-10.6,0-20.2-6.1-24.7-15.7c-4.5-9.6-3.1-21,3.6-29.2l74.8-92.1c9.6-11.2,24.6-16.1,38.9-12.7&#xd;&#xa;&#x9;&#x9;c14.3,3.5,25.5,14.7,28.9,29.1c3.4,14.4-1.5,29.5-12.7,39.1l-91.5,75.2C103.6,191.3,97.5,193.5,91.2,193.5L91.2,193.5z M175.2,47.1&#xd;&#xa;&#x9;&#x9;h-1.7c-9.7,0.5-18.7,5.1-24.9,12.6l-74.9,92.1c-7.2,9-6.5,22.1,1.7,30.2c8.1,8.2,21.1,8.9,30.1,1.6l91.5-75.3&#xd;&#xa;&#x9;&#x9;c11.3-9.2,15.6-24.6,10.7-38.4C202.7,56.2,189.7,47,175.2,47.1L175.2,47.1z M175.2,47.1"/>
                <path d="M187.9,200.5h-0.9c-3.3-0.3-6.4-2-8.3-4.8l-31.8-42.5l3.8-2.9l31.8,42.5c1.1,1.6,2.8,2.6,4.7,2.8c2,0.1,3.9-0.6,5.3-2&#xd;&#xa;&#x9;&#x9;l13.5-13.4c2.1-2.1,2.6-5.2,1.2-7.8l-20.9-52.4l4.4-1.8l20.8,52.4c2.2,4.4,1.4,9.7-2.1,13.2L196,197.1&#xd;&#xa;&#x9;&#x9;C193.9,199.3,191,200.5,187.9,200.5L187.9,200.5z M104.1,109.8L60,76.5c-2.7-1.9-4.5-5-4.7-8.3c-0.3-3.3,0.9-6.6,3.3-9L72,45.7&#xd;&#xa;&#x9;&#x9;c3.5-3.5,8.9-4.4,13.3-2.1L139,65.2l-1.8,4.4L83.4,47.9c-2.6-1.4-5.8-1-8,1.1L62,62.5c-1.4,1.4-2.1,3.3-1.9,5.2&#xd;&#xa;&#x9;&#x9;c0.2,1.9,1.2,3.6,2.7,4.8l44.1,33.3L104.1,109.8z M65.1,164.2L48,154.4c-3.1-1.8-5.2-4.9-5.6-8.4c-0.5-3.5,0.7-7.1,3.2-9.6&#xd;&#xa;&#x9;&#x9;l10.2-10.2c2.9-3,7.3-4.1,11.3-3l20.2,6l-1.3,4.8l-20.2-6c-2.3-0.7-4.9,0-6.6,1.7l-10.2,10.1c-1.5,1.5-2.2,3.5-1.9,5.6&#xd;&#xa;&#x9;&#x9;c0.3,2,1.5,3.8,3.3,4.8l17.1,9.8L65.1,164.2z M111.1,213.7h-1.5c-3.5-0.4-6.6-2.5-8.4-5.7l-8.5-14.9l4.1-2.4l8.5,14.9&#xd;&#xa;&#x9;&#x9;c1,1.8,2.7,3,4.7,3.3c2.1,0.3,4.1-0.4,5.6-1.9l10.2-10.2c1.7-1.7,2.4-4.3,1.7-6.6l-5.3-17.9l4.7-1.3l5.2,17.9&#xd;&#xa;&#x9;&#x9;c1.2,4,0.1,8.3-2.8,11.3l-10.2,10.2C117,212.5,114.1,213.7,111.1,213.7L111.1,213.7z M111.1,213.7"/>
                <path d="M154.7,66.8c6.6-7.7,16.9-11.1,26.7-8.7" class="st3"/>
            </g>
        </g>
    </g>
</svg>
